<svg width="628" height="140" viewBox="0 0 628 140" fill="none" xmlns="http://www.w3.org/2000/svg">
<path d="M70 27V7H62" stroke="#F6CCA6" stroke-width="2" stroke-linejoin="round"/>
<path d="M26 7H18V67H48" stroke="#F6CCA6" stroke-width="2" stroke-linejoin="round"/>
<path d="M56 7H32V15H56V7Z" stroke="#F6CCA6" stroke-width="2" stroke-linejoin="round"/>
<path d="M62 35V13H56" stroke="#F6CCA6" stroke-width="2" stroke-linejoin="round"/>
<path d="M32 13H26V59H44" stroke="#F6CCA6" stroke-width="2" stroke-linejoin="round"/>
<path d="M72.38 36.96L54 55.34V61H59.66L78.04 42.62L72.38 36.96Z" stroke="#F6CCA6" stroke-width="2" stroke-linejoin="round"/>
<path d="M6.92475 86.304H8.58075V88.512C8.58075 92.688 6.22875 96.144 2.60475 97.56L1.54875 95.952C4.81275 94.752 6.92475 91.824 6.92475 88.512V86.304ZM7.28475 86.304H8.91675V88.656C8.91675 91.584 11.0768 94.296 14.1968 95.376L13.1407 96.936C9.66075 95.64 7.28475 92.424 7.28475 88.656V86.304ZM16.5008 85.176H18.4928V98.328H16.5008V85.176ZM17.9408 90.768H21.7088V92.448H17.9408V90.768ZM11.5808 98.928C16.0208 98.928 18.7088 100.392 18.7088 102.888C18.7088 105.384 16.0208 106.824 11.5808 106.824C7.14075 106.824 4.45275 105.384 4.45275 102.888C4.45275 100.392 7.14075 98.928 11.5808 98.928ZM11.5808 100.512C8.36475 100.512 6.39675 101.376 6.39675 102.888C6.39675 104.4 8.36475 105.264 11.5808 105.264C14.7968 105.264 16.7648 104.4 16.7648 102.888C16.7648 101.376 14.7968 100.512 11.5808 100.512ZM38.5789 85.176H40.5709V97.464H38.5789V85.176ZM40.0189 90.48H43.7869V92.112H40.0189V90.48ZM24.7309 94.584H26.4109C30.8749 94.584 33.3949 94.464 36.2989 93.864L36.5149 95.496C33.5389 96.096 30.9709 96.24 26.4109 96.24H24.7309V94.584ZM24.7309 86.616H34.2829V88.248H26.6989V95.52H24.7309V86.616ZM26.9389 98.616H40.5709V106.584H26.9389V98.616ZM38.6269 100.224H28.8829V104.952H38.6269V100.224ZM57.903 87.408H59.535V89.16C59.535 93.144 57.135 96.456 53.511 97.752L52.455 96.192C55.743 95.04 57.903 92.256 57.903 89.16V87.408ZM58.263 87.408H59.895V89.136C59.895 92.016 61.983 94.68 65.175 95.76L64.143 97.32C60.567 96.072 58.263 92.88 58.263 89.136V87.408ZM53.079 86.688H64.671V88.32H53.079V86.688ZM67.407 85.176H69.399V98.232H67.407V85.176ZM68.847 90.888H72.615V92.544H68.847V90.888ZM55.311 99.384H69.399V106.872H67.407V101.04H55.311V99.384ZM80.1011 86.4H81.7571V88.632C81.7571 92.832 79.3811 96.264 75.6611 97.656L74.6291 96.024C77.9411 94.848 80.1011 91.944 80.1011 88.632V86.4ZM80.4611 86.4H82.0931V88.56C82.0931 91.632 84.2051 94.344 87.3731 95.448L86.2931 97.008C82.7891 95.688 80.4611 92.496 80.4611 88.56V86.4ZM90.4931 85.176H92.4851V98.016H90.4931V85.176ZM85.3571 98.64C89.8211 98.64 92.5811 100.152 92.5811 102.744C92.5811 105.336 89.8211 106.824 85.3571 106.824C80.8691 106.824 78.1091 105.336 78.1091 102.744C78.1091 100.152 80.8691 98.64 85.3571 98.64ZM85.3571 100.224C82.0931 100.224 80.1011 101.16 80.1011 102.744C80.1011 104.328 82.0931 105.264 85.3571 105.264C88.6211 105.264 90.6131 104.328 90.6131 102.744C90.6131 101.16 88.6211 100.224 85.3571 100.224ZM85.7891 89.76H90.9251V91.416H85.7891V89.76Z" fill="#F6CCA6"/>
<path d="M188.165 91.152H193.637V92.784H188.165V91.152ZM192.509 85.2H194.501V101.088H192.509V85.2ZM180.653 104.76H195.101V106.392H180.653V104.76ZM180.653 99.696H182.645V105.6H180.653V99.696ZM182.189 87.888H183.821V89.64C183.821 93.576 181.373 96.984 177.749 98.328L176.717 96.744C179.957 95.592 182.189 92.712 182.189 89.64V87.888ZM182.573 87.888H184.181V89.616C184.181 92.424 186.293 95.16 189.437 96.264L188.429 97.824C184.901 96.552 182.573 93.288 182.573 89.616V87.888ZM177.341 86.952H188.933V88.56H177.341V86.952ZM204.363 98.112H206.355V101.64H204.363V98.112ZM213.483 85.176H215.475V106.872H213.483V85.176ZM214.827 94.392H218.835V96.072H214.827V94.392ZM198.771 102.744L198.483 101.088C202.371 101.088 207.675 101.04 212.163 100.392L212.331 101.88C207.651 102.72 202.563 102.744 198.771 102.744ZM198.843 87.792H211.827V89.4H198.843V87.792ZM205.347 90.672C208.371 90.672 210.459 92.256 210.459 94.68C210.459 97.128 208.371 98.688 205.347 98.688C202.323 98.688 200.259 97.128 200.259 94.68C200.259 92.256 202.323 90.672 205.347 90.672ZM205.347 92.208C203.403 92.208 202.131 93.192 202.131 94.68C202.131 96.168 203.403 97.152 205.347 97.152C207.291 97.152 208.587 96.168 208.587 94.68C208.587 93.192 207.291 92.208 205.347 92.208ZM204.363 85.2H206.355V88.872H204.363V85.2ZM232.831 86.304H234.487V88.512C234.487 92.688 232.135 96.144 228.511 97.56L227.455 95.952C230.719 94.752 232.831 91.824 232.831 88.512V86.304ZM233.191 86.304H234.823V88.656C234.823 91.584 236.983 94.296 240.103 95.376L239.047 96.936C235.567 95.64 233.191 92.424 233.191 88.656V86.304ZM242.407 85.176H244.399V98.328H242.407V85.176ZM243.847 90.768H247.615V92.448H243.847V90.768ZM237.487 98.928C241.927 98.928 244.615 100.392 244.615 102.888C244.615 105.384 241.927 106.824 237.487 106.824C233.047 106.824 230.359 105.384 230.359 102.888C230.359 100.392 233.047 98.928 237.487 98.928ZM237.487 100.512C234.271 100.512 232.303 101.376 232.303 102.888C232.303 104.4 234.271 105.264 237.487 105.264C240.703 105.264 242.671 104.4 242.671 102.888C242.671 101.376 240.703 100.512 237.487 100.512ZM264.485 85.176H266.477V97.464H264.485V85.176ZM265.925 90.48H269.693V92.112H265.925V90.48ZM250.637 94.584H252.317C256.781 94.584 259.301 94.464 262.205 93.864L262.421 95.496C259.445 96.096 256.877 96.24 252.317 96.24H250.637V94.584ZM250.637 86.616H260.189V88.248H252.605V95.52H250.637V86.616ZM252.845 98.616H266.477V106.584H252.845V98.616ZM264.533 100.224H254.789V104.952H264.533V100.224Z" fill="#F6CCA6"/>
<path d="M383.204 91.152H388.676V92.784H383.204V91.152ZM387.548 85.2H389.54V101.088H387.548V85.2ZM375.692 104.76H390.14V106.392H375.692V104.76ZM375.692 99.696H377.684V105.6H375.692V99.696ZM377.228 87.888H378.86V89.64C378.86 93.576 376.412 96.984 372.788 98.328L371.756 96.744C374.996 95.592 377.228 92.712 377.228 89.64V87.888ZM377.612 87.888H379.22V89.616C379.22 92.424 381.332 95.16 384.476 96.264L383.468 97.824C379.94 96.552 377.612 93.288 377.612 89.616V87.888ZM372.38 86.952H383.972V88.56H372.38V86.952ZM393.762 96.264H413.418V97.896H393.762V96.264ZM402.738 97.272H404.73V102.264H402.738V97.272ZM396.282 86.184H410.874V93.816H396.282V86.184ZM408.906 87.792H398.226V92.208H408.906V87.792ZM396.258 104.76H411.234V106.392H396.258V104.76ZM396.258 100.176H398.226V105.336H396.258V100.176ZM430.528 85.152H432.544V106.872H430.528V85.152ZM431.992 93.96H436V95.616H431.992V93.96ZM424.984 87.504H426.928C426.928 93.672 424.096 99.24 417.088 102.768L415.984 101.232C421.984 98.184 424.984 93.552 424.984 87.816V87.504ZM416.992 87.504H426.016V89.136H416.992V87.504ZM375.029 116.545V134H372.915V118.761H372.813L368.552 121.591V119.443L372.915 116.545H375.029ZM381.549 131.767C381.129 131.767 380.768 131.616 380.467 131.315C380.165 131.014 380.015 130.653 380.015 130.233C380.015 129.812 380.165 129.452 380.467 129.151C380.768 128.849 381.129 128.699 381.549 128.699C381.969 128.699 382.33 128.849 382.631 129.151C382.933 129.452 383.083 129.812 383.083 130.233C383.083 130.511 383.012 130.767 382.87 131C382.734 131.233 382.549 131.42 382.316 131.562C382.089 131.699 381.833 131.767 381.549 131.767ZM381.549 122.938C381.129 122.938 380.768 122.787 380.467 122.486C380.165 122.185 380.015 121.824 380.015 121.403C380.015 120.983 380.165 120.622 380.467 120.321C380.768 120.02 381.129 119.869 381.549 119.869C381.969 119.869 382.33 120.02 382.631 120.321C382.933 120.622 383.083 120.983 383.083 121.403C383.083 121.682 383.012 121.938 382.87 122.17C382.734 122.403 382.549 122.591 382.316 122.733C382.089 122.869 381.833 122.938 381.549 122.938ZM392.795 116.545V134H390.681V118.761H390.579L386.317 121.591V119.443L390.681 116.545H392.795ZM404.726 116.216H406.622V121.52H411.158V116.216H413.006V130.448H404.726V116.216ZM406.622 123.128V128.816H411.158V123.128H406.622ZM420.47 114.176H422.39V135.872H420.47V114.176ZM416.99 122.768H421.166V124.4H416.99V122.768ZM415.67 114.632H417.566V134.792H415.67V114.632ZM437.604 119.792H442.5V121.448H437.604V119.792ZM441.876 114.176H443.868V127.112H441.876V114.176ZM436.74 127.76C441.204 127.76 443.964 129.272 443.964 131.816C443.964 134.384 441.204 135.848 436.74 135.848C432.252 135.848 429.492 134.384 429.492 131.816C429.492 129.272 432.252 127.76 436.74 127.76ZM436.74 129.32C433.476 129.32 431.484 130.232 431.484 131.816C431.484 133.376 433.476 134.288 436.74 134.288C440.004 134.288 441.996 133.376 441.996 131.816C441.996 130.232 440.004 129.32 436.74 129.32ZM431.556 116.36H433.188V118.112C433.188 122.12 430.74 125.552 427.14 126.896L426.108 125.312C429.324 124.136 431.556 121.232 431.556 118.112V116.36ZM431.94 116.36H433.548V118.112C433.548 120.92 435.66 123.608 438.804 124.712L437.796 126.296C434.268 125.024 431.94 121.76 431.94 118.112V116.36ZM426.708 115.76H438.3V117.392H426.708V115.76Z" fill="#F6CCA6"/>
<path d="M563.851 85.2H565.867V101.088H563.851V85.2ZM551.923 104.76H566.515V106.392H551.923V104.76ZM551.923 99.624H553.891V105.528H551.923V99.624ZM553.723 86.376H555.379V88.584C555.379 92.808 552.979 96.504 549.331 97.992L548.299 96.384C551.563 95.112 553.723 91.944 553.723 88.584V86.376ZM554.083 86.376H555.715V88.584C555.715 91.848 557.899 94.8 561.139 95.976L560.083 97.584C556.483 96.192 554.083 92.712 554.083 88.584V86.376ZM570.137 96.048H589.817V97.68H570.137V96.048ZM578.945 92.76H580.913V96.792H578.945V92.76ZM578.921 85.512H580.649V86.472C580.649 90.384 576.497 93.168 572.081 93.888L571.313 92.304C575.201 91.776 578.921 89.376 578.921 86.472V85.512ZM579.233 85.512H580.937V86.472C580.937 89.376 584.681 91.776 588.545 92.304L587.801 93.888C583.409 93.144 579.233 90.384 579.233 86.472V85.512ZM572.321 99.792H587.321V106.872H585.329V101.4H572.321V99.792ZM607.071 85.2H609.063V101.472H607.071V85.2ZM608.439 92.304H612.279V93.984H608.439V92.304ZM592.287 87.816H605.103V89.424H592.287V87.816ZM598.695 90.624C601.767 90.624 603.879 92.232 603.879 94.68C603.879 97.104 601.767 98.712 598.695 98.712C595.599 98.712 593.487 97.104 593.487 94.68C593.487 92.232 595.599 90.624 598.695 90.624ZM598.695 92.184C596.727 92.184 595.383 93.168 595.383 94.68C595.383 96.168 596.727 97.152 598.695 97.152C600.639 97.152 601.983 96.168 601.983 94.68C601.983 93.168 600.639 92.184 598.695 92.184ZM597.687 85.176H599.679V88.656H597.687V85.176ZM595.551 104.76H610.047V106.392H595.551V104.76ZM595.551 100.176H597.543V105.456H595.551V100.176ZM538.973 116.048H540.605V119.936C540.605 124.736 538.013 129.416 534.581 131.24L533.357 129.656C536.501 128.072 538.973 123.896 538.973 119.936V116.048ZM539.333 116.048H540.941V119.936C540.941 123.752 543.365 127.712 546.437 129.248L545.213 130.832C541.853 129.032 539.333 124.592 539.333 119.936V116.048ZM548.333 114.176H550.349V135.872H548.333V114.176ZM549.869 122.96H553.901V124.64H549.869V122.96ZM571.587 114.176H573.579V130.208H571.587V114.176ZM566.907 120.872H571.971V122.528H566.907V120.872ZM564.891 115.856H566.979C566.979 121.448 563.043 125.696 556.923 127.736L556.059 126.128C561.363 124.352 564.891 120.944 564.891 116.648V115.856ZM557.139 115.856H566.187V117.488H557.139V115.856ZM559.875 133.76H574.131V135.392H559.875V133.76ZM559.875 128.6H561.867V134.576H559.875V128.6ZM600.439 114.152H602.407V135.896H600.439V114.152ZM595.759 122.864H601.015V124.52H595.759V122.864ZM590.095 119.336H591.679V121.184C591.679 125.768 589.159 129.992 585.727 131.696L584.599 130.16C587.791 128.624 590.095 124.928 590.095 121.184V119.336ZM590.479 119.336H592.039V121.184C592.039 124.76 594.415 128.288 597.607 129.752L596.503 131.288C593.023 129.68 590.479 125.624 590.479 121.184V119.336ZM585.199 117.944H596.863V119.552H585.199V117.944ZM590.071 114.56H592.063V118.832H590.071V114.56ZM622.445 114.152H624.437V135.896H622.445V114.152ZM607.901 129.008H609.701C613.325 129.008 616.565 128.864 620.405 128.24L620.621 129.872C616.685 130.52 613.421 130.664 609.701 130.664H607.901V129.008ZM607.853 116.192H617.885V123.944H609.893V129.632H607.901V122.312H615.869V117.824H607.853V116.192Z" fill="#F6CCA6"/>
<path d="M380.667 0C379.206 0 378 1.20831 378 2.66868V13.8473C378 15.3077 379.206 16.512 380.667 16.512H391.843C393.304 16.512 394.512 15.3077 394.512 13.8473V10.6687C394.514 10.0986 394.054 9.63488 393.484 9.63265C392.914 9.63492 392.454 10.0986 392.456 10.6687V13.8473C392.456 14.1997 392.196 14.448 391.843 14.448H380.667C380.314 14.448 380.064 14.1997 380.064 13.8473V2.66868C380.064 2.31629 380.314 2.06601 380.667 2.06601H388.667C389.238 2.0649 389.7 1.59962 389.697 1.02797C389.694 0.460249 389.234 0.00110475 388.667 0H380.667ZM391.418 3.09599C391.143 3.09603 390.88 3.20553 390.686 3.40035L386.26 7.82666L383.892 5.46435C383.489 5.06403 382.837 5.06403 382.434 5.46435C382.029 5.86789 382.029 6.52414 382.434 6.92769L385.528 10.0197C385.932 10.4253 386.588 10.4253 386.992 10.0197L392.15 4.86369C392.555 4.46015 392.555 3.8039 392.15 3.40035C391.956 3.20553 391.693 3.09603 391.418 3.09599ZM397.614 3.09599C397.04 3.09263 396.574 3.558 396.576 4.13202C396.578 4.70289 397.043 5.16334 397.614 5.15999H406.902C407.472 5.16222 407.936 4.7021 407.938 4.13202C407.94 3.55879 407.475 3.09375 406.902 3.09599H397.614ZM397.614 7.22399C397.04 7.22062 396.574 7.68599 396.576 8.26001C396.578 8.83089 397.043 9.29133 397.614 9.28798H411.03C411.597 9.28581 412.058 8.82695 412.06 8.26001C412.062 7.68993 411.6 7.22621 411.03 7.22399H397.614ZM397.614 11.354C397.04 11.3506 396.574 11.818 396.576 12.392C396.578 12.9629 397.043 13.4234 397.614 13.42H416.19C416.76 13.4223 417.224 12.9621 417.226 12.392C417.228 11.8188 416.763 11.3517 416.19 11.354H397.614ZM409.994 18.578C406.016 18.578 402.772 21.8317 402.772 25.81C402.772 27.9464 403.708 29.8712 405.191 31.1958C401.446 32.069 398.642 35.3629 398.642 39.3107V48.5079H389.352C388.782 48.5102 388.322 48.9739 388.324 49.544V55.6392C388.324 55.9962 388.508 56.3277 388.812 56.516L394.512 60.0695V62.9619C394.509 63.5359 394.974 64.0022 395.548 64H424.45C425.021 63.9977 425.481 63.5328 425.478 62.9619V60.1078L431.164 56.8062C431.481 56.6205 431.675 56.2806 431.674 55.9133V49.544C431.676 48.9739 431.216 48.5102 430.646 48.5079L418.248 48.52L418.24 45.0773C418.506 45.4215 418.756 45.4217 419.014 45.424H426.504C428.23 45.424 429.6 44.053 429.6 42.328C429.6 40.6031 428.23 39.232 426.504 39.232L422.672 39.2401C420.445 37.114 418.684 33.7205 416.426 32.0202C415.956 31.6749 415.41 31.4115 414.761 31.2341C416.27 29.9085 417.226 27.9668 417.226 25.81C417.226 21.8317 413.972 18.578 409.994 18.578ZM380.667 20.642C379.206 20.642 378 21.8503 378 23.3107V34.4953C378 35.9557 379.206 37.162 380.667 37.162H391.843C393.304 37.162 394.512 35.9557 394.512 34.4953V31.3107C394.51 30.7437 394.051 30.2829 393.484 30.2807C392.917 30.2828 392.458 30.7437 392.456 31.3107V34.4953C392.456 34.8477 392.196 35.098 391.843 35.098H380.667C380.314 35.098 380.064 34.8477 380.064 34.4953V23.3107C380.064 22.9583 380.314 22.708 380.667 22.708H388.667C389.234 22.7068 389.694 22.2477 389.697 21.68C389.699 21.1092 389.238 20.6431 388.667 20.642H380.667ZM409.994 20.642C412.857 20.642 415.162 22.9474 415.162 25.81C415.162 28.6726 412.857 30.966 409.994 30.966C407.131 30.966 404.836 28.6726 404.836 25.81C404.836 22.9474 407.131 20.642 409.994 20.642ZM391.418 23.738C391.143 23.738 390.88 23.8475 390.686 24.0423L386.26 28.4747L383.892 26.1063C383.489 25.706 382.837 25.706 382.434 26.1063C382.029 26.5099 382.029 27.1661 382.434 27.5697L385.528 30.6616C385.932 31.0673 386.588 31.0673 386.992 30.6616L392.15 25.5037C392.554 25.1003 392.554 24.4456 392.15 24.0423C391.956 23.8475 391.693 23.738 391.418 23.738ZM407.168 33.034H412.526C414 33.034 414.654 33.2749 415.206 33.681C415.759 34.0871 416.329 34.6521 417.139 35.6402L421.348 40.8969C421.545 41.1343 421.876 41.3053 422.184 41.3041L426.504 41.296C427.149 41.296 427.534 41.7388 427.534 42.328C427.534 42.9173 427.149 43.36 426.504 43.36H419.433L416.523 40.516C416.115 40.1155 415.461 40.122 415.061 40.5301C414.659 40.9375 414.666 41.5958 415.075 41.9955L416.19 43.1827L416.184 48.52H405.864L405.86 42.3321C405.862 41.7621 405.402 41.2983 404.832 41.296C404.259 41.2938 403.794 41.7588 403.796 42.3321L403.8 48.52L400.706 48.5079V39.3107C400.706 35.8287 403.557 33.034 407.168 33.034Z" fill="#F6CCA6"/>
<path d="M236.433 63.5369C234.233 63.5206 232.043 63.2445 229.908 62.7142C222.535 60.9353 214.943 56.4227 208.533 50.0074C202.124 43.5921 197.605 35.9983 195.826 28.6324C193.953 20.8839 195.289 14.2549 199.584 9.96019L200.81 8.73394C201.923 7.6236 203.43 7 205.002 7C206.574 7 208.082 7.6236 209.194 8.73394L216.241 15.7792C217.352 16.8915 217.976 18.3992 217.976 19.9713C217.976 21.5433 217.352 23.0511 216.241 24.1633L212.078 28.3244C214.074 31.826 216.788 35.3303 219.996 38.538C223.203 41.7457 226.71 44.4611 230.211 46.4566L234.372 42.2941C234.922 41.7435 235.576 41.3067 236.295 41.0086C237.014 40.7106 237.785 40.5573 238.564 40.5573C239.342 40.5573 240.113 40.7106 240.832 41.0086C241.552 41.3067 242.205 41.7435 242.756 42.2941L249.801 49.3394C250.912 50.4512 251.537 51.9588 251.537 53.5307C251.537 55.1027 250.912 56.6103 249.801 57.7221L248.573 58.9483C245.546 61.9816 241.355 63.5369 236.433 63.5369ZM205.002 11.216C204.778 11.2149 204.555 11.2586 204.348 11.3445C204.14 11.4305 203.952 11.557 203.794 11.7166L202.566 12.9428C199.35 16.1589 198.411 21.3803 199.921 27.6367C201.52 34.2644 205.636 41.1508 211.51 47.0233C217.384 52.8958 224.269 57.0077 230.898 58.6122C237.156 60.1225 242.375 59.1832 245.591 55.9671L246.817 54.7408C247.137 54.4202 247.317 53.9854 247.317 53.5321C247.317 53.0789 247.137 52.6441 246.817 52.3235L239.773 45.2782C239.452 44.9578 239.018 44.7778 238.564 44.7778C238.111 44.7778 237.676 44.9578 237.356 45.2782L232.081 50.553C231.764 50.8697 231.355 51.0774 230.913 51.1462C230.47 51.215 230.018 51.1412 229.62 50.9355C225.296 48.6996 220.936 45.4441 217.013 41.5207C213.089 37.5972 209.841 33.2407 207.599 28.9164C207.394 28.5189 207.32 28.0661 207.388 27.6237C207.457 27.1813 207.664 26.7722 207.981 26.4555L213.257 21.1807C213.577 20.86 213.757 20.4253 213.757 19.972C213.757 19.5187 213.577 19.084 213.257 18.7633L206.211 11.7166C206.053 11.5573 205.865 11.431 205.657 11.345C205.449 11.2591 205.227 11.2152 205.002 11.216Z" fill="#F6CCA6"/>
<path d="M238.686 38.1782C238.127 38.1782 237.59 37.9559 237.194 37.5603C236.799 37.1648 236.577 36.6282 236.577 36.0688C236.573 32.3683 235.101 28.8205 232.484 26.2037C229.868 23.5869 226.32 22.1148 222.62 22.1104C222.06 22.1104 221.524 21.8881 221.128 21.4925C220.732 21.0969 220.51 20.5604 220.51 20.001C220.51 19.4415 220.732 18.905 221.128 18.5094C221.524 18.1138 222.06 17.8916 222.62 17.8916C232.642 17.8916 240.795 26.0479 240.795 36.0688C240.795 36.6282 240.573 37.1648 240.178 37.5603C239.782 37.9559 239.245 38.1782 238.686 38.1782Z" fill="#F6CCA6"/>
<path d="M247.602 38.1778C247.042 38.1778 246.506 37.9555 246.11 37.56C245.715 37.1644 245.492 36.6278 245.492 36.0684C245.492 23.4557 235.227 13.1943 222.62 13.1943C222.06 13.1943 221.524 12.9721 221.128 12.5765C220.732 12.1809 220.51 11.6444 220.51 11.085C220.51 10.5255 220.732 9.98899 221.128 9.59341C221.524 9.19782 222.06 8.97559 222.62 8.97559C237.558 8.97559 249.711 21.1298 249.711 36.0684C249.711 36.6278 249.489 37.1644 249.093 37.56C248.698 37.9555 248.161 38.1778 247.602 38.1778Z" fill="#F6CCA6"/>
<path d="M560.73 46H535L538.067 37L535 28H560.73L563.796 37L560.73 46Z" fill="#F6CCA6"/>
<path d="M590.723 46H564.994L568.06 37L564.994 28H590.723L593.79 37L590.723 46Z" fill="#F6CCA6"/>
<path d="M620.935 46H595.205L598.272 37L595.205 28H620.935L624.002 37L620.935 46Z" fill="#F8B41E"/>
<path d="M126 26.94L128.07 25L145.2 41L128.07 57L126 55.07L141.05 41L126 26.94Z" fill="#F6CCA6"/>
<path d="M303 26.94L305.07 25L322.2 41L305.07 57L303 55.07L318.05 41L303 26.94Z" fill="#F6CCA6"/>
<path d="M479 26.94L481.07 25L498.2 41L481.07 57L479 55.07L494.05 41L479 26.94Z" fill="#F6CCA6"/>
</svg>
