<svg width="100" height="100" viewBox="0 0 100 100" fill="none" xmlns="http://www.w3.org/2000/svg">
<path d="M70.4878 37.3911C70.0868 37.3911 69.7022 37.5504 69.4186 37.834C69.135 38.1176 68.9757 38.5022 68.9757 38.9032C68.9757 47.0987 60.2358 53.7671 49.5 53.7671C48.3919 53.7628 47.2854 53.682 46.1885 53.5251C45.9391 53.4921 45.6854 53.5219 45.4504 53.6116C45.2154 53.7014 45.0066 53.8484 44.8427 54.0393C43.1178 55.905 41.0684 57.442 38.7943 58.5755C39.6245 56.7204 39.9929 54.6918 39.8679 52.6633C39.8444 52.4034 39.7541 52.154 39.6057 51.9394C39.4574 51.7248 39.256 51.5522 39.0211 51.4385C33.3508 48.6713 29.9486 43.999 29.9486 38.9183C30.0242 30.6925 38.7641 24.0242 49.5 24.0242C52.5754 23.9264 55.6358 24.4931 58.4723 25.6856C61.3088 26.8782 63.8547 28.6685 65.9364 30.9345C66.0645 31.0864 66.2212 31.2116 66.3977 31.3029C66.5742 31.3942 66.7669 31.4499 66.9649 31.4667C67.1629 31.4836 67.3622 31.4613 67.5516 31.4011C67.7409 31.3409 67.9166 31.244 68.0685 31.1159C68.2204 30.9878 68.3456 30.8311 68.4369 30.6546C68.5282 30.4782 68.5839 30.2854 68.6008 30.0875C68.6176 29.8895 68.5953 29.6901 68.5351 29.5008C68.4749 29.3114 68.378 29.1358 68.2499 28.9839C64.0765 23.9939 57.0604 21 49.5 21C37.0857 21 27 29.0292 27 38.9032C27 44.9516 30.6895 50.3951 36.9193 53.7217C36.7447 55.8188 36.0763 57.8447 34.9687 59.634C34.9067 59.7427 34.8608 59.8599 34.8326 59.9818C34.7128 60.4022 34.7271 60.8496 34.8734 61.2615C35.0198 61.6735 35.2909 62.0296 35.6492 62.2802C35.9772 62.5268 36.372 62.6689 36.782 62.6878C37.192 62.7066 37.5982 62.6015 37.9476 62.386C41.1641 61.0276 44.0978 59.0787 46.5967 56.6401C47.561 56.7452 48.53 56.8008 49.5 56.8064C61.9143 56.8064 71.9999 48.7772 71.9999 38.9183C72.0019 38.7185 71.9643 38.5202 71.8892 38.335C71.8141 38.1498 71.703 37.9813 71.5624 37.8393C71.4218 37.6973 71.2544 37.5846 71.07 37.5076C70.8855 37.4307 70.6877 37.3911 70.4878 37.3911Z" fill="#FFD390"/>
<path d="M41.6214 44.2859C41.8109 44.3549 42.0123 44.3854 42.2137 44.3754C42.4151 44.3655 42.6125 44.3154 42.7942 44.228C42.976 44.1407 43.1384 44.0179 43.272 43.8668C43.4056 43.7157 43.5076 43.5394 43.572 43.3484L45.1749 39.175L46.7928 43.3484C46.9025 43.6325 47.0954 43.877 47.3463 44.0497C47.5972 44.2223 47.8944 44.3152 48.199 44.3161C48.3842 44.3156 48.5681 44.2849 48.7434 44.2254C48.9309 44.155 49.1025 44.0481 49.2483 43.9108C49.3941 43.7736 49.5112 43.6087 49.5928 43.4258C49.6744 43.243 49.7189 43.0457 49.7236 42.8455C49.7283 42.6453 49.6933 42.4462 49.6204 42.2597L46.5962 34.427C46.4874 34.1401 46.2939 33.8931 46.0414 33.7188C45.7888 33.5445 45.4893 33.4512 45.1824 33.4512C44.8756 33.4512 44.576 33.5445 44.3235 33.7188C44.071 33.8931 43.8774 34.1401 43.7686 34.427L40.7444 42.2597C40.6619 42.4495 40.6193 42.6542 40.6191 42.8612C40.619 43.0682 40.6613 43.273 40.7436 43.4629C40.8258 43.6529 40.9461 43.8239 41.0971 43.9655C41.2481 44.107 41.4266 44.2161 41.6214 44.2859Z" fill="#FFD390"/>
<path d="M51.7826 33.5195C51.3816 33.5195 50.997 33.6788 50.7134 33.9624C50.4298 34.246 50.2705 34.6306 50.2705 35.0316V42.8643C50.2705 43.2653 50.4298 43.6499 50.7134 43.9335C50.997 44.2171 51.3816 44.3764 51.7826 44.3764H55.6536C56.0546 44.3764 56.4392 44.2171 56.7228 43.9335C57.0063 43.6499 57.1657 43.2653 57.1657 42.8643C57.1657 42.4632 57.0063 42.0786 56.7228 41.7951C56.4392 41.5115 56.0546 41.3522 55.6536 41.3522H53.2947V35.0316C53.2947 34.6306 53.1354 34.246 52.8518 33.9624C52.5682 33.6788 52.1836 33.5195 51.7826 33.5195Z" fill="#FFD390"/>
<path d="M38.0987 44.3764C38.4997 44.3764 38.8843 44.2171 39.1679 43.9335C39.4515 43.6499 39.6108 43.2653 39.6108 42.8643V36.5437H40.7449C41.1459 36.5437 41.5305 36.3844 41.8141 36.1008C42.0976 35.8173 42.2569 35.4327 42.2569 35.0316C42.2569 34.6306 42.0976 34.246 41.8141 33.9624C41.5305 33.6788 41.1459 33.5195 40.7449 33.5195H35.4525C35.0515 33.5195 34.6669 33.6788 34.3833 33.9624C34.0997 34.246 33.9404 34.6306 33.9404 35.0316C33.9404 35.4327 34.0997 35.8173 34.3833 36.1008C34.6669 36.3844 35.0515 36.5437 35.4525 36.5437H36.5866V42.8643C36.5866 43.2653 36.7459 43.6499 37.0295 43.9335C37.313 44.2171 37.6977 44.3764 38.0987 44.3764Z" fill="#FFD390"/>
<path d="M59.268 33.5203C58.8669 33.5203 58.4823 33.6796 58.1987 33.9631C57.9152 34.2467 57.7559 34.6313 57.7559 35.0323V42.865C57.7559 43.266 57.9152 43.6506 58.1987 43.9342C58.4823 44.2178 58.8669 44.3771 59.268 44.3771C59.669 44.3771 60.0536 44.2178 60.3372 43.9342C60.6207 43.6506 60.78 43.266 60.78 42.865V41.0505L63.1087 43.8327C63.2508 44.0034 63.4289 44.1407 63.6301 44.2348C63.8314 44.3289 64.0508 44.3775 64.273 44.3771C64.5707 44.3852 64.8641 44.3052 65.1165 44.1472C65.3688 43.9891 65.569 43.7601 65.6917 43.4888C65.8144 43.2175 65.8543 42.916 65.8064 42.6221C65.7584 42.3282 65.6248 42.055 65.4222 41.8368L62.398 38.2985L65.1198 36.1664C65.4366 35.9198 65.6424 35.5574 65.6921 35.159C65.7417 34.7606 65.631 34.3587 65.3844 34.0419C65.1377 33.7251 64.7754 33.5192 64.3769 33.4696C63.9785 33.42 63.5767 33.5307 63.2599 33.7773L60.78 35.7884V35.0323C60.78 34.6313 60.6207 34.2467 60.3372 33.9631C60.0536 33.6796 59.669 33.5203 59.268 33.5203Z" fill="#FFD390"/>
<path d="M23.8065 76.48H24.8305V77.232C24.8305 80.096 23.6305 82.992 21.5185 84.256L20.7185 83.248C22.6865 82.096 23.8065 79.584 23.8065 77.232V76.48ZM24.0465 76.48H25.0705V77.232C25.0705 79.52 26.2385 81.888 28.1745 82.944L27.4225 83.936C25.2945 82.752 24.0465 80.016 24.0465 77.232V76.48ZM21.0865 75.472H27.7905V76.56H21.0865V75.472ZM23.8065 73.296H25.0865V76.288H23.8065V73.296ZM31.9185 72.784H33.1825V87.248H31.9185V72.784ZM29.6305 78.608H32.4145V79.728H29.6305V78.608ZM28.7665 73.088H30.0145V86.528H28.7665V73.088ZM36.4133 79.648H37.5813C40.7013 79.648 42.4133 79.584 44.4453 79.248L44.5893 80.304C42.4933 80.672 40.7333 80.72 37.5813 80.72H36.4133V79.648ZM36.4133 73.84H43.2933V74.912H37.7253V80.192H36.4133V73.84ZM37.2933 76.704H42.8933V77.76H37.2933V76.704ZM46.0933 72.8H47.4373V81.744H46.0933V72.8ZM42.6533 81.952C45.6613 81.952 47.5013 82.912 47.5013 84.576C47.5013 86.256 45.6613 87.216 42.6533 87.216C39.6293 87.216 37.7893 86.256 37.7893 84.576C37.7893 82.912 39.6293 81.952 42.6533 81.952ZM42.6533 83.008C40.4453 83.008 39.1173 83.584 39.1173 84.576C39.1173 85.6 40.4453 86.176 42.6533 86.176C44.8453 86.176 46.1733 85.6 46.1733 84.576C46.1733 83.584 44.8453 83.008 42.6533 83.008ZM53.804 73.536H54.908V75.008C54.908 77.792 53.34 80.096 50.924 81.04L50.22 79.968C52.396 79.168 53.804 77.216 53.804 75.008V73.536ZM54.044 73.536H55.132V75.104C55.132 77.056 56.572 78.864 58.652 79.584L57.948 80.624C55.628 79.76 54.044 77.616 54.044 75.104V73.536ZM60.188 72.784H61.516V81.552H60.188V72.784ZM61.148 76.512H63.66V77.632H61.148V76.512ZM56.908 81.952C59.868 81.952 61.66 82.928 61.66 84.592C61.66 86.256 59.868 87.216 56.908 87.216C53.948 87.216 52.156 86.256 52.156 84.592C52.156 82.928 53.948 81.952 56.908 81.952ZM56.908 83.008C54.764 83.008 53.452 83.584 53.452 84.592C53.452 85.6 54.764 86.176 56.908 86.176C59.052 86.176 60.364 85.6 60.364 84.592C60.364 83.584 59.052 83.008 56.908 83.008ZM74.9068 72.784H76.2348V80.976H74.9068V72.784ZM75.8668 76.32H78.3788V77.408H75.8668V76.32ZM65.6748 79.056H66.7948C69.7708 79.056 71.4508 78.976 73.3868 78.576L73.5308 79.664C71.5468 80.064 69.8348 80.16 66.7948 80.16H65.6748V79.056ZM65.6748 73.744H72.0428V74.832H66.9868V79.68H65.6748V73.744ZM67.1468 81.744H76.2348V87.056H67.1468V81.744ZM74.9388 82.816H68.4427V85.968H74.9388V82.816Z" fill="white"/>
</svg>
