<svg width="100" height="100" viewBox="0 0 100 100" fill="none" xmlns="http://www.w3.org/2000/svg">
<path d="M28.5265 76.768H32.1745V77.856H28.5265V76.768ZM31.4225 72.8H32.7505V83.392H31.4225V72.8ZM23.5185 85.84H33.1505V86.928H23.5185V85.84ZM23.5185 82.464H24.8465V86.4H23.5185V82.464ZM24.5425 74.592H25.6305V75.76C25.6305 78.384 23.9985 80.656 21.5825 81.552L20.8945 80.496C23.0545 79.728 24.5425 77.808 24.5425 75.76V74.592ZM24.7985 74.592H25.8705V75.744C25.8705 77.616 27.2785 79.44 29.3745 80.176L28.7025 81.216C26.3505 80.368 24.7985 78.192 24.7985 75.744V74.592ZM21.3105 73.968H29.0385V75.04H21.3105V73.968ZM39.3253 81.408H40.6533V83.76H39.3253V81.408ZM45.4053 72.784H46.7333V87.248H45.4053V72.784ZM46.3013 78.928H48.9733V80.048H46.3013V78.928ZM35.5973 84.496L35.4053 83.392C37.9973 83.392 41.5333 83.36 44.5253 82.928L44.6373 83.92C41.5173 84.48 38.1253 84.496 35.5973 84.496ZM35.6453 74.528H44.3013V75.6H35.6453V74.528ZM39.9813 76.448C41.9973 76.448 43.3893 77.504 43.3893 79.12C43.3893 80.752 41.9973 81.792 39.9813 81.792C37.9653 81.792 36.5893 80.752 36.5893 79.12C36.5893 77.504 37.9653 76.448 39.9813 76.448ZM39.9813 77.472C38.6853 77.472 37.8373 78.128 37.8373 79.12C37.8373 80.112 38.6853 80.768 39.9813 80.768C41.2773 80.768 42.1413 80.112 42.1413 79.12C42.1413 78.128 41.2773 77.472 39.9813 77.472ZM39.3253 72.8H40.6533V75.248H39.3253V72.8ZM53.804 73.536H54.908V75.008C54.908 77.792 53.34 80.096 50.924 81.04L50.22 79.968C52.396 79.168 53.804 77.216 53.804 75.008V73.536ZM54.044 73.536H55.132V75.104C55.132 77.056 56.572 78.864 58.652 79.584L57.948 80.624C55.628 79.76 54.044 77.616 54.044 75.104V73.536ZM60.188 72.784H61.516V81.552H60.188V72.784ZM61.148 76.512H63.66V77.632H61.148V76.512ZM56.908 81.952C59.868 81.952 61.66 82.928 61.66 84.592C61.66 86.256 59.868 87.216 56.908 87.216C53.948 87.216 52.156 86.256 52.156 84.592C52.156 82.928 53.948 81.952 56.908 81.952ZM56.908 83.008C54.764 83.008 53.452 83.584 53.452 84.592C53.452 85.6 54.764 86.176 56.908 86.176C59.052 86.176 60.364 85.6 60.364 84.592C60.364 83.584 59.052 83.008 56.908 83.008ZM74.9068 72.784H76.2348V80.976H74.9068V72.784ZM75.8668 76.32H78.3788V77.408H75.8668V76.32ZM65.6748 79.056H66.7948C69.7708 79.056 71.4508 78.976 73.3868 78.576L73.5308 79.664C71.5468 80.064 69.8348 80.16 66.7948 80.16H65.6748V79.056ZM65.6748 73.744H72.0428V74.832H66.9868V79.68H65.6748V73.744ZM67.1468 81.744H76.2348V87.056H67.1468V81.744ZM74.9388 82.816H68.4427V85.968H74.9388V82.816Z" fill="white"/>
<path d="M59.0471 62.0002C57.4518 61.9884 55.8635 61.7882 54.3152 61.4036C48.9684 60.1136 43.4625 56.841 38.8142 52.1887C34.1659 47.5364 30.8893 42.0294 29.5993 36.6877C28.2409 31.0686 29.2097 26.2612 32.3242 23.1467L33.2134 22.2574C34.0203 21.4522 35.1136 21 36.2535 21C37.3934 21 38.4867 21.4522 39.2935 22.2574L44.4038 27.3667C45.2095 28.1732 45.662 29.2666 45.662 30.4067C45.662 31.5467 45.2095 32.6402 44.4038 33.4467L41.3851 36.4643C42.8322 39.0036 44.8005 41.545 47.1266 43.8712C49.4528 46.1973 51.9962 48.1666 54.5345 49.6137L57.5521 46.5951C57.9513 46.1958 58.4252 45.879 58.9468 45.6629C59.4684 45.4468 60.0275 45.3355 60.5921 45.3355C61.1567 45.3355 61.7158 45.4468 62.2374 45.6629C62.7591 45.879 63.233 46.1958 63.6322 46.5951L68.7414 51.7043C69.5473 52.5105 70 53.6039 70 54.7438C70 55.8838 69.5473 56.9771 68.7414 57.7833L67.8511 58.6726C65.6555 60.8723 62.6164 62.0002 59.0471 62.0002ZM36.2535 24.0574C36.0907 24.0566 35.9293 24.0883 35.7789 24.1506C35.6285 24.213 35.492 24.3047 35.3775 24.4204L34.4872 25.3097C32.1549 27.642 31.4737 31.4285 32.5689 35.9657C33.7284 40.772 36.7134 45.766 40.9731 50.0247C45.2329 54.2834 50.2258 57.2653 55.0332 58.4289C59.5713 59.5242 63.3558 58.8429 65.6881 56.5106L66.5774 55.6214C66.8097 55.3888 66.9402 55.0736 66.9402 54.7448C66.9402 54.4161 66.8097 54.1008 66.5774 53.8683L61.4692 48.7591C61.2366 48.5267 60.9214 48.3962 60.5926 48.3962C60.2639 48.3962 59.9486 48.5267 59.7161 48.7591L55.8908 52.5844C55.6613 52.814 55.3646 52.9647 55.0438 53.0146C54.723 53.0644 54.3946 53.0109 54.1062 52.8618C50.9703 51.2403 47.8089 48.8794 44.9636 46.0342C42.1184 43.1889 39.7626 40.0296 38.1371 36.8937C37.9878 36.6054 37.9341 36.277 37.9838 35.9562C38.0335 35.6354 38.1839 35.3387 38.4134 35.109L42.2397 31.2837C42.4721 31.0512 42.6026 30.7359 42.6026 30.4072C42.6026 30.0785 42.4721 29.7632 42.2397 29.5307L37.1305 24.4204C37.0156 24.3049 36.8789 24.2133 36.7284 24.151C36.5778 24.0887 36.4164 24.0568 36.2535 24.0574Z" fill="#FFD390"/>
<path d="M60.681 43.6101C60.2753 43.6101 59.8862 43.449 59.5993 43.1621C59.3124 42.8752 59.1513 42.4861 59.1513 42.0804C59.1483 39.3968 58.081 36.824 56.1835 34.9263C54.286 33.0286 51.7133 31.9611 49.0297 31.9579C48.624 31.9579 48.2349 31.7967 47.948 31.5098C47.6612 31.2229 47.5 30.8338 47.5 30.4281C47.5 30.0224 47.6612 29.6334 47.948 29.3465C48.2349 29.0596 48.624 28.8984 49.0297 28.8984C56.2979 28.8984 62.2107 34.8133 62.2107 42.0804C62.2107 42.4861 62.0495 42.8752 61.7626 43.1621C61.4758 43.449 61.0867 43.6101 60.681 43.6101Z" fill="#FFD390"/>
<path d="M67.1465 43.6099C66.7408 43.6099 66.3517 43.4487 66.0649 43.1618C65.778 42.875 65.6168 42.4859 65.6168 42.0802C65.6168 32.9335 58.1723 25.492 49.0297 25.492C48.624 25.492 48.2349 25.3309 47.948 25.044C47.6612 24.7571 47.5 24.368 47.5 23.9623C47.5 23.5566 47.6612 23.1675 47.948 22.8807C48.2349 22.5938 48.624 22.4326 49.0297 22.4326C59.8631 22.4326 68.6762 31.2468 68.6762 42.0802C68.6762 42.4859 68.5151 42.875 68.2282 43.1618C67.9413 43.4487 67.5522 43.6099 67.1465 43.6099Z" fill="#FFD390"/>
</svg>
