<svg width="100" height="100" viewBox="0 0 100 100" fill="none" xmlns="http://www.w3.org/2000/svg">
<path d="M27.4705 81.856C30.4145 81.856 32.2225 82.848 32.2225 84.544C32.2225 86.24 30.4145 87.232 27.4705 87.232C24.5265 87.232 22.7185 86.24 22.7185 84.544C22.7185 82.848 24.5265 81.856 27.4705 81.856ZM27.4705 82.928C25.3265 82.928 24.0145 83.52 24.0145 84.544C24.0145 85.584 25.3265 86.176 27.4705 86.176C29.6145 86.176 30.9265 85.584 30.9265 84.544C30.9265 83.52 29.6145 82.928 27.4705 82.928ZM30.7505 72.784H32.0785V81.472H30.7505V72.784ZM31.7105 76.416H34.2225V77.536H31.7105V76.416ZM21.4545 73.696H22.7665V75.856H26.8465V73.696H28.1425V80.368H21.4545V73.696ZM22.7665 76.912V79.296H26.8465V76.912H22.7665ZM35.5653 80.176H48.6693V81.264H35.5653V80.176ZM41.5493 80.848H42.8773V84.176H41.5493V80.848ZM37.2453 73.456H46.9733V78.544H37.2453V73.456ZM45.6613 74.528H38.5413V77.472H45.6613V74.528ZM37.2293 85.84H47.2133V86.928H37.2293V85.84ZM37.2293 82.784H38.5413V86.224H37.2293V82.784ZM53.804 73.536H54.908V75.008C54.908 77.792 53.34 80.096 50.924 81.04L50.22 79.968C52.396 79.168 53.804 77.216 53.804 75.008V73.536ZM54.044 73.536H55.132V75.104C55.132 77.056 56.572 78.864 58.652 79.584L57.948 80.624C55.628 79.76 54.044 77.616 54.044 75.104V73.536ZM60.188 72.784H61.516V81.552H60.188V72.784ZM61.148 76.512H63.66V77.632H61.148V76.512ZM56.908 81.952C59.868 81.952 61.66 82.928 61.66 84.592C61.66 86.256 59.868 87.216 56.908 87.216C53.948 87.216 52.156 86.256 52.156 84.592C52.156 82.928 53.948 81.952 56.908 81.952ZM56.908 83.008C54.764 83.008 53.452 83.584 53.452 84.592C53.452 85.6 54.764 86.176 56.908 86.176C59.052 86.176 60.364 85.6 60.364 84.592C60.364 83.584 59.052 83.008 56.908 83.008ZM74.9068 72.784H76.2348V80.976H74.9068V72.784ZM75.8668 76.32H78.3788V77.408H75.8668V76.32ZM65.6748 79.056H66.7948C69.7708 79.056 71.4508 78.976 73.3868 78.576L73.5308 79.664C71.5468 80.064 69.8348 80.16 66.7948 80.16H65.6748V79.056ZM65.6748 73.744H72.0428V74.832H66.9868V79.68H65.6748V73.744ZM67.1468 81.744H76.2348V87.056H67.1468V81.744ZM74.9388 82.816H68.4427V85.968H74.9388V82.816Z" fill="white"/>
<path d="M65.0667 37.0333C65.0667 28.7308 58.3358 22 50.0333 22C41.7308 22 35 28.7308 35 37.0333C35 47.9667 50.0333 63 50.0333 63C50.0333 63 65.0667 47.9667 65.0667 37.0333Z" stroke="#FFD390" stroke-width="2" stroke-miterlimit="10" stroke-linejoin="round"/>
<path d="M50.0331 42.4997C53.0522 42.4997 55.4997 40.0522 55.4997 37.0331C55.4997 34.0139 53.0522 31.5664 50.0331 31.5664C47.0139 31.5664 44.5664 34.0139 44.5664 37.0331C44.5664 40.0522 47.0139 42.4997 50.0331 42.4997Z" stroke="#FFD390" stroke-width="2" stroke-miterlimit="10" stroke-linejoin="round"/>
</svg>
